inDegrees=no
num_controls=7
num_derivatives=13
num_iterations=84
num_multipliers=7
num_parameters=0
num_slacks=7
num_states=26
objective=0.418416
objective_accelerations=0.069119
objective_balance=0.006461
objective_effort=0.036638
objective_height=0.305153
objective_ligament=0.001045
solver_duration=1077.541560
status=Solve_Succeeded
success=true
DataType=double
version=3
OpenSimVersion=4.5
endheader
time	/jointset/ground_pelvis/pelvis_tilt/value	/jointset/ground_pelvis/pelvis_tx/value	/jointset/ground_pelvis/pelvis_ty/value	/jointset/hip_l/hip_flexion_l/value	/jointset/hip_l/hip_adduction_l/value	/jointset/hip_l/hip_rotation_l/value	/jointset/back/lumbar_extension/value	/jointset/patellofemoral_l/patellar_flexion_l/value	/jointset/knee_l/knee_flexion_l/value	/jointset/knee_l/knee_adduction_l/value	/jointset/knee_l/knee_rotation_l/value	/jointset/ankle_l/ankle_angle_l/value	/jointset/subtalar_l/subtalar_angle_l/value	/jointset/ground_pelvis/pelvis_tilt/speed	/jointset/ground_pelvis/pelvis_tx/speed	/jointset/ground_pelvis/pelvis_ty/speed	/jointset/hip_l/hip_flexion_l/speed	/jointset/hip_l/hip_adduction_l/speed	/jointset/hip_l/hip_rotation_l/speed	/jointset/back/lumbar_extension/speed	/jointset/patellofemoral_l/patellar_flexion_l/speed	/jointset/knee_l/knee_flexion_l/speed	/jointset/knee_l/knee_adduction_l/speed	/jointset/knee_l/knee_rotation_l/speed	/jointset/ankle_l/ankle_angle_l/speed	/jointset/subtalar_l/subtalar_angle_l/speed	/forceset/tau_hip_flexion_l	/forceset/tau_hip_adduction_l	/forceset/tau_hip_rotation_l	/forceset/tau_knee_flexion_l	/forceset/tau_ankle_angle_l	/forceset/tau_subtalar_angle_l	/forceset/tau_lumbar_extension	lambda_cid13_p0	lambda_cid13_p1	lambda_cid13_p2	lambda_cid13_p3	lambda_cid13_p4	lambda_cid13_p5	lambda_cid14_p0	/jointset/ground_pelvis/pelvis_tilt/accel	/jointset/ground_pelvis/pelvis_tx/accel	/jointset/ground_pelvis/pelvis_ty/accel	/jointset/hip_l/hip_flexion_l/accel	/jointset/hip_l/hip_adduction_l/accel	/jointset/hip_l/hip_rotation_l/accel	/jointset/back/lumbar_extension/accel	/jointset/patellofemoral_l/patellar_flexion_l/accel	/jointset/knee_l/knee_flexion_l/accel	/jointset/knee_l/knee_adduction_l/accel	/jointset/knee_l/knee_rotation_l/accel	/jointset/ankle_l/ankle_angle_l/accel	/jointset/subtalar_l/subtalar_angle_l/accel	gamma_cid13_p0	gamma_cid13_p1	gamma_cid13_p2	gamma_cid13_p3	gamma_cid13_p4	gamma_cid13_p5	gamma_cid14_p0
0.5	-0.3145108692219435	-0.03371556951647827	0.7099282975493255	1.337950906702368	-0.2475552410396579	-0.03677148599471602	-0.3444334522930425	1.087830914407827	1.087830914407766	0.02446900357480422	0.174488831856343	0.2755929203042611	0.07747829521669948	-0.3138363840161468	-0.1156507016934149	-0.7809621645444053	2.562472530298434	0.05612381816707371	0.3821964502763917	-0.6117977593154755	2.859879100411104	2.859879100410881	0.5007227364722707	0.003364395041423579	0.7614765310794313	0.283827869939034	-0.1833899621325172	0.03151224185173546	-0.01002989220050074	-0.318796606115064	0.1147402070302627	0.003673922979244314	0.1888347640040649	-1.018414946802847	2.509796758332085	-5.288201349081855	-9.124817033409933	-591.9223664785361	-37.75708175251877	-4.342044645355194	1.087255976755992	0.9310565343270071	-0.7638727700321176	-1.615104285973975	-0.1522413012213953	-0.9322564342673024	2.057413404815587	-1.749392076553317	-1.749392076553317	-0.3117710785504852	-0.2697603054259224	-1.437895230870432	-0.2194660373898547	2.332227304741446e-07	-6.424893016996217e-06	-4.14423150129886e-06	-1.046820042433048e-06	-2.859010162098294e-07	-4.672371085937136e-06	-1.194988369113444e-07
0.51	-0.3175940398546502	-0.03482539461496391	0.7020824366776187	1.36349113459536	-0.2470036167459814	-0.0330013208409685	-0.3504481374700038	1.116337634081996	1.116337634081901	0.02946151411361129	0.1745147806969183	0.2831336784230858	0.08030219707842452	-0.3027271176362407	-0.1062993316196719	-0.7880188400785668	2.545238536258235	0.05411401914763193	0.3719763368269579	-0.5910744952261366	2.841086792718663	2.84108679271851	0.4975360683171586	0.001873035830513714	0.7465310634334466	0.2807707090594244	-0.1898573540399508	0.03238706143700308	-0.010652867168846	-0.3247852614797787	0.1133511042330692	0.004059622364469074	0.1946416016905004	-1.909107948713036	2.821164801417328	-5.706695244868247	-8.778536443679249	-599.2559590072108	-37.76145712106986	-3.1218713223175	1.133366332112788	0.9392198922143795	-0.6479488697655618	-1.827708532179762	-0.2375025056121404	-1.046135390395539	2.089500038223564	-2.000836269554518	-2.000836269543961	-0.3594698705851657	-0.08074184172801797	-1.544713626485155	-0.3746365781208336	2.471755551499964e-07	-6.104905650962349e-06	-4.060959578471753e-06	-1.008818824648295e-06	-2.952670752315448e-07	-4.714016609402395e-06	-8.31437507365612e-08
0.52	-0.3205639969508544	-0.03584129748304824	0.6941717322656388	1.388848990234128	-0.2464745211031613	-0.02932920613972254	-0.3562536465806254	1.144645093448446	1.144645093448317	0.03441468693354072	0.1745274323228746	0.2905206136464441	0.08309036823837859	-0.291193676716161	-0.09686625561315351	-0.7939308725990385	2.525998079452569	0.05161808799590759	0.3625863597729594	-0.5699625460475941	2.820027038867619	2.820027038867535	0.4928551926982999	0.0007049521074272508	0.7307119519865533	0.2766817295848388	-0.1963247459473563	0.03326188102234218	-0.0112758421371184	-0.3307739168444909	0.1119620014358888	0.004445321749795685	0.2004484393769582	-2.790968010746159	3.114286241172467	-6.103210438773538	-8.519677651477128	-606.4730899367212	-37.80276248857403	-2.097909427152042	1.172090884790726	0.9473977208820277	-0.5349441672941481	-2.016396839066996	-0.249467727677902	-0.7662291551802317	2.135150422656135	-2.202881308274065	-2.202881308274065	-0.6106125712997867	-0.2051052078613227	-1.6126239910522	-0.4258297563850164	2.628878720764535e-07	-5.788581912293025e-06	-4.021262019679616e-06	-9.73003196561578e-07	-2.91944215914846e-07	-4.719345242272925e-06	-4.806179903788871e-08
0.53	-0.3234168329569136	-0.03676259770065972	0.6862077016895934	1.414004844678189	-0.2459719512234234	-0.02574809645127692	-0.3618462148983151	1.172730677870803	1.172730677870721	0.03931619876490957	0.1745295791704511	0.2977452869198717	0.0858335593840002	-0.2793255549458135	-0.08739047058734958	-0.7986770091462874	2.504862501259532	0.04888164525054781	0.3536003516943113	-0.5485057864521514	2.796716937252	2.796716937252009	0.4874643507661264	-0.0002277286842940301	0.7141090973833093	0.2718714293591851	-0.2024975540441448	0.03400416617591026	-0.0121035038646066	-0.3373274876552871	0.1106818121669657	0.00476220094997085	0.2059862624268651	-3.66665798370828	3.432137119435728	-6.499003535783508	-8.13307212044502	-613.9494954351354	-37.8615513735914	-1.28756368584451	1.201387194552898	0.9479756534220951	-0.41477141873145	-2.208661704574128	-0.2870476681218711	-0.9702300424615964	2.157738383352988	-2.451004913718578	-2.451004913704645	-0.5014676588204799	-0.02923506151952269	-1.701365641620629	-0.5200282210681353	2.786379686744977e-07	-5.45861179618121e-06	-3.953478937676922e-06	-9.374533874618727e-07	-2.870816533055821e-07	-4.713510348099974e-06	-1.404289400210492e-08
0.54	-0.3261495448709881	-0.03758907871601402	0.6782021451440173	1.438940038661294	-0.2454970087951694	-0.02225793552527136	-0.3672228556889776	1.200571975211893	1.200571975211876	0.04416417264609138	0.1745240221008751	0.3048004817579347	0.08852636791428271	-0.2671688583196362	-0.07790241516171638	-0.8022360665051821	2.481865987260423	0.0460925976989136	0.3443966072854744	-0.5267770406421377	2.771169622615866	2.771169622615968	0.4821476026481658	-0.0008358313436901021	0.6968162649136581	0.266605206517021	-0.2086703621409213	0.03474645132947499	-0.01293116559164376	-0.3438810584660666	0.1094016228980366	0.005079080150137335	0.2115240854767833	-4.529937053186844	3.73382154250516	-6.876240971321681	-7.852380695876739	-621.2714204434436	-37.93888709907739	-0.6890749893595065	1.229805855956725	0.9498518008478553	-0.2975283296233586	-2.388584000281331	-0.2599886889327911	-0.8097764212180395	2.189547665570209	-2.650323912377111	-2.650323912377107	-0.5957938084571851	-0.1401895813961732	-1.750619564333695	-0.5170142796871843	2.944298640581276e-07	-5.113543560345788e-06	-3.854622510845528e-06	-9.021976759648192e-07	-2.805155891811397e-07	-4.695324317623596e-06	1.879987430027008e-08
